<?xml version="1.0" encoding="UTF-8" standalone="no"?>
<!-- Created with Inkscape (http://www.inkscape.org/) -->

<svg
   version="1.1"
   id="svg1"
   width="1801"
   height="1493"
   viewBox="0 0 1801 1493"
   xmlns="http://www.w3.org/2000/svg"
   xmlns:svg="http://www.w3.org/2000/svg">
  <defs
     id="defs1" />
  <g
     id="g1">
    <path
       id="path1"
       style="fill:#eb9d0a;fill-opacity:1"
       d="m 770.81445,8.5492223 -51.1582,0.61914 c -62.5175,0.756165 -162.1157,3.1104107 -231.6445,5.4746097 -22.2854,0.757772 -22.4087,0.819541 -17.0801,8.564453 1.6873,2.452387 3.0684,4.869886 3.0684,5.373047 0,0.50316 0.9,1.729123 2,2.724609 1.1,0.995486 2,2.345486 2,3 0,0.654518 0.9,2.004518 2,2.999998 1.1,0.99549 2,2.34549 2,3 0,0.65452 0.9,2.00452 2,3 1.1,0.99549 2,2.34549 2,3 0,0.65452 0.9,2.00452 2,3 1.1,0.99549 2,2.34549 2,3 0,0.65452 0.9,2.00452 2,3 1.1,0.99549 2,2.34549 2,3 0,0.65452 0.9,2.00452 2,3 1.1,0.99549 2,2.34549 2,3 0,0.65452 0.9,2.00452 2,3 1.1,0.99549 2,2.34549 2,3 0,0.65452 0.9,2.00452 2,3 1.1,0.99549 2,2.34549 2,3 0,0.65452 0.9,2.00452 2,3 1.1,0.99549 2,2.34549 2,3 0,0.65452 0.9,2.00452 2,3 1.1,0.99549 2,2.34549 2,3 0,0.65452 0.9,2.00452 2,3 1.1,0.99549 2,2.34549 2,3 0,0.65451 0.9,2.00451 2,3 1.1,0.99549 2,2.34549 2,3.000001 0,0.65451 0.9,2.00451 2,3 1.1,0.99549 2,2.34549 2,3 0,0.65451 0.9,2.00451 2,3 1.1,0.99549 2,2.34549 2,3 0,0.65451 0.9,2.00451 2,3 1.1,0.99549 2,2.34549 2,3 0,0.65451 0.9,2.00451 2,3 1.1,0.99549 2,2.34549 2,3 0,0.65451 0.9,2.00451 2,3 1.1,0.99549 2,2.34549 2,3 0,0.65451 0.9,2.00451 2,3 1.1,0.99549 2,2.34549 2,3 0,0.65451 0.9,2.00451 2,3 1.1,0.99549 2,2.34549 2,3 0,0.65451 0.9,2.00451 2,3 1.1,0.99549 2,2.34549 2,3 0,0.65451 0.9,2.00451 2,3 1.1,0.99549 2,2.34549 2,3 0,0.65451 0.9,2.00451 2,3 1.1,0.99549 2,2.34549 2,3 0,0.65451 0.9,2.00451 2,3 1.1,0.99549 2,2.34549 2,3 0,0.65451 0.9,2.00451 2,3 1.1,0.99549 2,2.34549 2,3 0,0.65451 0.9,2.00451 2,3 1.1,0.99549 2,2.34549 2,3 0,0.65451 0.9,2.00451 2,3 1.1,0.99549 2,2.34549 2,3 0,0.65451 0.9,2.00451 2,3 1.1,0.99549 2,2.34549 2,3 0,0.65451 0.9,2.00451 2,3 1.1,0.99549 2,2.34549 2,3 0,0.65451 0.9,2.00451 2,3 1.1,0.99549 2,2.26722 2,2.82617 0,0.55895 0.7484,1.84196 1.6621,2.85156 0.9136,1.00959 2.1511,2.66692 2.75,3.68165 0.5988,1.01473 16.1629,24.25266 34.5879,51.64062 18.425,27.38796 33.989,50.6259 34.5878,51.64062 0.5989,1.01473 1.8364,2.67206 2.75,3.68165 0.9137,1.0096 1.6622,2.29261 1.6622,2.85156 0,0.55895 0.9,1.83068 2,2.82617 1.1,0.99549 2,2.34549 2,3 0,0.65451 0.9,2.00451 2,3 1.1,0.99549 2,2.34549 2,3 0,0.65451 0.9,2.00451 2,3 1.1,0.99549 2,2.34549 2,3 0,0.65451 0.9,2.00451 2,3 1.1,0.99549 2,2.34549 2,3 0,0.65451 0.9,2.00451 2,3 1.1,0.99549 2,2.34549 2,3 0,0.65451 0.9,2.00451 2,3 1.1,0.99549 2,2.34549 2,3 0,0.65451 0.9,2.00451 2,3 1.1,0.99549 2,2.34549 2,3 0,0.65451 0.9,2.00451 2,3 1.1,0.99549 2,2.34549 2,3 0,0.65451 0.9,2.00451 2,3 1.1,0.99549 2,2.34549 2,3 0,0.65451 0.9,2.00451 2,3 1.1,0.99549 2,2.34549 2,3 0,0.65451 0.9,2.00451 2,3 1.1,0.99549 2,2.34549 2,3 0,0.65451 0.9,2.00451 2,3 1.1,0.99549 2,2.34549 2,3 0,0.65451 0.9,2.00451 2,3 1.1,0.99549 2,2.34549 2,3 0,0.65451 0.9,2.00451 2,3 1.1,0.99549 2,2.34549 2,3 0,0.65451 0.9,2.00451 2,3 1.1,0.99549 2,2.34549 2,3 0,0.65451 0.9,2.00451 2,3 1.1,0.99549 2,2.34549 2,3 0,0.65451 0.9,2.00451 2,3 1.1,0.99549 2,2.34549 2,3 0,0.65451 0.9,2.00451 2,3 1.1,0.99549 2,2.34549 2,3 0,0.65451 0.9,2.00451 2,3 1.1,0.99549 2,2.34549 2,3 0,0.65451 0.9,2.00451 2,3 1.1,0.99549 2,2.34549 2,3 0,0.65451 0.9,2.00451 2,3 1.1,0.99549 2,2.34549 2,3 0,0.65451 0.9,2.00451 2,3 1.1,0.99549 2,2.34549 2,3 0,0.65451 0.9,2.00451 2,3 1.1,0.99549 2,2.34549 2,3 0,0.65451 0.9,2.00451 2,3 1.1,0.99549 2,2.34549 2,3 0,0.65451 0.9,2.00451 2,3 1.1,0.99549 2,2.34549 2,3 0,0.65451 0.9,2.00451 2,3 1.1,0.99549 2,2.34549 2,3 0,0.65451 0.9,2.00451 2,3 1.1,0.99549 2,2.34549 2,3 0,0.65451 0.9,2.00451 2,3 1.1,0.99549 2,2.34549 2,3 0,0.65451 0.9,2.00451 2,3 1.1,0.99549 2,2.34549 2,3 0,0.65451 0.9,2.00451 2,3 1.1,0.99549 2,2.34549 2,3 0,0.65451 0.9,2.00451 2,3 1.1,0.99549 2,2.34549 2,3 0,0.65451 0.9,2.00451 2,3 1.1,0.99549 2,2.34549 2,3 0,0.65451 0.9,2.00451 2,3 1.1,0.99549 2,2.34549 2,3 0,0.65451 0.9,2.00451 2,3 1.1,0.99549 2,2.34549 2,3 0,0.65451 0.9,2.00451 2,3 1.1,0.99549 2,2.34549 2,3 0,0.65451 0.9,2.00451 2,3 1.1,0.99549 2,2.34549 2,3 0,0.65451 0.9,2.00451 2,3 1.1,0.99549 2,2.34549 2,3 0,0.65451 0.9,2.00451 2,3 1.1,0.99549 2,2.34549 2,3 0,0.65451 0.9,2.00451 2,3 1.1,0.99549 2,2.34549 2,3 0,0.65451 0.9,2.00451 2,3 1.1,0.99549 2,2.34549 2,3 0,0.65451 0.9,2.00451 2,3 1.1,0.99549 2,2.34549 2,3 0,0.65451 0.9,2.00451 2,3 1.1,0.99549 2,2.34549 2,3 0,0.65451 0.9,2.00451 2,3 1.1,0.99549 2,2.34549 2,3 0,0.65451 0.9,2.00451 2,3 1.1,0.99549 2,2.34549 2,3 0,0.65451 0.9,2.00451 2,3 1.1,0.99549 2,2.34549 2,3 0,0.65451 0.9,2.00451 2,3 1.1,0.99549 2,2.26722 2,2.82617 0,0.55895 0.7484,1.84196 1.6621,2.85156 0.9136,1.00959 2.1511,2.66584 2.75,3.67969 0.5988,1.01384 24.2629,36.40285 52.5879,78.64258 28.325,42.23973 51.989,77.62874 52.5878,78.64258 0.5989,1.01385 1.8364,2.6701 2.75,3.67969 0.9137,1.0096 1.6622,2.29261 1.6622,2.85156 0,0.55895 0.9,1.83068 2,2.82617 1.1,0.99549 2,2.34549 2,3 0,0.65451 0.9,2.00451 2,3 1.1,0.99549 2,2.34549 2,3 0,0.65451 0.9,2.00451 2,3 1.1,0.99549 2,2.34549 2,3 0,0.65451 0.9,2.00451 2,3 1.1,0.99549 1.99999,2.34549 1.99999,3 0,0.65451 0.9,2.00451 2,3 1.1,0.99549 2,2.34549 2,3 0,0.65451 0.9,2.00451 2,3 1.1,0.99549 2,2.34549 2,3 0,0.65451 0.9,2.00451 2,3 1.1,0.99549 2,2.34549 2,3 0,0.65451 0.9,2.00451 2,3 1.1,0.99549 2,2.34549 2,3 0,0.65451 0.9,2.00451 1.99996,3 1.1,0.99549 2,2.34549 2,3 0,0.65451 0.9,2.00451 2,3 1.1,0.99549 2,2.33659 2,2.98047 0,0.64389 1.0658,2.17213 2.3691,3.39648 4.3862,4.12065 11.4212,0.62348 20.4219,-10.15429 26.9585,-32.28139 44.6151,-53.57646 97.4531,-117.53516 10.3089,-12.47857 20.9986,-25.3875 23.7559,-28.6875 2.7573,-3.3 13.5573,-16.35 24,-29 10.4427,-12.65 21.2427,-25.7 24,-29 2.7573,-3.3 13.5573,-16.35 24,-29 10.4427,-12.65 21.2467,-25.7 24.0078,-29 2.7611,-3.3 15.2033,-18.27834 27.6504,-33.28516 12.4471,-15.00683 23.1283,-27.12531 23.7363,-26.92968 0.608,0.19562 8.1428,14.27395 16.7442,31.28515 8.6014,17.0112 18.5014,36.43738 22,43.16797 3.4986,6.73058 15.0673,29.45558 25.709,50.5 10.6417,21.04441 22.8675,45.01172 27.1679,53.26172 4.3004,8.25 16.9046,33 28.0098,55 11.1052,22 22.7943,44.95 25.9746,51 3.1803,6.05 15.3127,29.9 26.9609,53 11.6482,23.1 23.91,47.175 27.25,53.5 3.3399,6.325 14.5031,28.15 24.8067,48.5 10.3035,20.34997 21.8913,43.07497 25.75,50.49997 3.8588,7.425 16.5586,32.39995 28.2226,55.49995 11.6639,23.1 24.7253,48.75 29.0254,57 4.3001,8.25 16.9056,33 28.0117,55 11.106,22 23.2439,45.85 26.9727,53 3.7289,7.15 15.4128,30.1 25.9648,51 10.552,20.9 22.3676,44.075 26.2559,51.5 3.8883,7.425 16.3614,31.9872 27.7188,54.582 11.3574,22.5949 21.5301,42.1699 22.6054,43.5 1.0753,1.3302 3.0801,3.0122 4.4551,3.7383 1.375,0.726 3.7221,2.976 5.2148,5 6.8303,9.2616 13.0169,16.8264 15.0567,18.4082 1.9012,1.4747 5.7285,2.4448 5.7285,1.4531 0,-0.1752 -0.6543,-2.5377 -1.4551,-5.25 -0.8007,-2.7123 -2.1101,-7.4066 -2.9082,-10.4316 -0.7981,-3.025 -4.2401,-14.95 -7.6484,-26.5 -3.4083,-11.55 -7.9027,-26.85 -9.9883,-34 -2.0856,-7.15 -6.5897,-22.45 -10.0098,-34 -3.4201,-11.55 -6.5796,-22.35 -7.0214,-24 -0.4419,-1.65 -2.6783,-9.3 -4.9688,-17 -2.2905,-7.7 -4.5267,-15.35 -4.9688,-17 -0.4419,-1.65 -2.6979,-9.3 -5.0136,-17 -2.3158,-7.7 -4.566,-15.35 -5,-17 -0.4341,-1.65 -3.5877,-12.45 -7.0078,-24 -3.4201,-11.55 -7.9242,-26.85 -10.0098,-34 -2.0856,-7.15 -6.5856,-22.45 -10,-34 -3.4144,-11.55 -7.9144,-26.85 -10,-34 -2.0856,-7.15 -6.5856,-22.45 -10,-34 -3.4144,-11.55 -7.9144,-26.85 -10,-34 -2.0856,-7.15 -6.5856,-22.45 -10,-34 -3.4144,-11.54995 -7.9144,-26.84995 -10,-33.99995 -2.0856,-7.15 -6.5897,-22.45 -10.0098,-34 -3.4201,-11.54997 -6.5737,-22.34997 -7.0078,-23.99997 -0.434,-1.65 -2.6842,-9.3 -5,-17 -2.3157,-7.7 -4.5716,-15.35 -5.0136,-17 -0.4419,-1.65 -2.1452,-7.5 -3.7833,-13 -5.2323,-17.56775 -15.2706,-51.57836 -19.1855,-65 -2.0856,-7.15 -6.5856,-22.45 -10,-34 -3.4144,-11.55 -7.9144,-26.85 -10,-34 -2.0856,-7.15 -6.5856,-22.45 -10,-34 -3.4144,-11.55 -7.9144,-26.85 -10,-34 -2.0856,-7.15 -6.5856,-22.45 -10,-34 -3.4144,-11.55 -7.9144,-26.85 -10,-34 -2.0856,-7.15 -6.5897,-22.45 -10.0098,-34 -3.4201,-11.55 -6.5796,-22.35 -7.0214,-24 -0.442,-1.65 -2.6783,-9.3 -4.9688,-17 -2.2905,-7.7 -4.5268,-15.35 -4.9688,-17 -0.4418,-1.65 -3.6013,-12.45 -7.0214,-24 -3.4201,-11.55 -7.9242,-26.85 -10.0098,-34 -2.0856,-7.15 -6.5897,-22.45 -10.0098,-34 -3.4201,-11.55 -6.5737,-22.35 -7.0078,-24 -0.9629,-3.66021 -8.2816,-28.28001 -10.2558,-34.5 -5.8417,-18.40542 -5.8967,-18.53266 -8.5176,-19.76953 -1.4342,-0.6768 -3.3918,-1.23047 -4.3496,-1.23047 -0.9579,0 -2.0195,-0.45 -2.3594,-1 -0.3399,-0.55 -1.6899,-1 -3,-1 -1.3101,0 -2.6601,-0.45 -3,-1 -0.3399,-0.55 -1.6899,-1 -3,-1 -1.3101,0 -2.6601,-0.45 -3,-1 -0.3399,-0.55 -1.6899,-1 -3,-1 -1.3101,0 -2.6601,-0.45 -3,-1 -0.3399,-0.55 -1.6899,-1 -3,-1 -1.3101,0 -2.6601,-0.45 -3,-1 -0.3399,-0.55 -2.1399,-1 -4,-1 -1.8601,0 -3.6601,-0.45 -4,-1 -0.3399,-0.55 -1.6899,-1 -3,-1 -1.3101,0 -2.6601,-0.45 -3,-1 -0.3399,-0.55 -1.6899,-1 -3,-1 -1.3101,0 -2.6601,-0.45 -3,-1 -0.3399,-0.55 -1.6899,-1 -3,-1 -1.3101,0 -2.6601,-0.45 -3,-1 -0.3399,-0.55 -1.6899,-1 -3,-1 -1.3101,0 -2.6601,-0.45 -3,-1 -0.3399,-0.55 -1.6899,-1 -3,-1 -1.3101,0 -2.6076,-0.36334 -2.8828,-0.80859 -0.2752,-0.44525 -3.4776,-1.4319 -7.1172,-2.19141 -3.6396,-0.75951 -6.842,-1.74616 -7.1172,-2.19141 -0.2752,-0.44525 -1.5727,-0.80859 -2.8828,-0.80859 -1.3101,0 -2.6601,-0.45 -3,-1 -0.3399,-0.55 -1.6899,-1 -3,-1 -1.3101,0 -2.6601,-0.45 -3,-1 -0.3399,-0.55 -1.6899,-1 -3,-1 -1.3101,0 -2.6601,-0.45 -3,-1 -0.3399,-0.55 -1.6899,-1 -3,-1 -1.3101,0 -2.6601,-0.45 -3,-1 -0.3399,-0.55 -1.6899,-1 -3,-1 -1.3101,0 -2.6601,-0.45 -3,-1 -0.3399,-0.55 -2.1399,-1 -4,-1 -1.8601,0 -3.6601,-0.45 -4,-1 -0.3399,-0.55 -1.6899,-1 -3,-1 -1.3101,0 -2.6601,-0.45 -3,-1 -0.3399,-0.55 -1.6899,-1 -3,-1 -1.3101,0 -2.6601,-0.45 -3,-1 -0.3399,-0.55 -1.6899,-1 -3,-1 -1.3101,0 -2.6601,-0.45 -3,-1 -0.3399,-0.55 -1.6899,-1 -3,-1 -1.3101,0 -2.6601,-0.45 -3,-1 -0.3399,-0.55 -1.6899,-1 -3,-1 -1.3101,0 -2.6601,-0.45 -3,-1 -0.3399,-0.55 -1.6899,-1 -3,-1 -1.3101,0 -2.6601,-0.45 -3,-1 -0.3399,-0.55 -1.6899,-1 -3,-1 -1.3101,0 -2.6601,-0.45 -3,-1 -0.3399,-0.55 -2.1399,-1 -4,-1 -1.8601,0 -3.6601,-0.45 -4,-1 -0.3399,-0.55 -1.6899,-1 -3,-1 -1.3101,0 -2.6601,-0.45 -3,-1 -0.3399,-0.55 -1.6899,-1 -3,-1 -1.3101,0 -2.6601,-0.45 -3,-1 -0.3399,-0.55 -1.6899,-1 -3,-1 -1.3101,0 -2.6601,-0.45 -3,-1 -0.3399,-0.55 -1.6899,-1 -3,-1 -1.3101,0 -2.6601,-0.45 -3,-1 -0.3399,-0.55 -2.1399,-1 -4,-1 -1.8601,0 -3.6601,-0.45 -4,-1 -0.3399,-0.55 -1.6899,-1 -3,-1 -1.3101,0 -2.6601,-0.45 -3,-1 -0.3399,-0.55 -1.6899,-1 -3,-1 -1.3101,0 -2.6601,-0.45 -3,-1 -0.3399,-0.55 -2.1399,-1 -4,-1 -1.8601,0 -3.6601,-0.45 -4,-1 -0.3399,-0.55 -1.6899,-1 -3,-1 -1.3101,0 -2.6201,-0.38693 -2.9121,-0.85938 -0.292,-0.47246 -3.0896,-1.16003 -6.2149,-1.52734 l -5.6816,-0.66797 -8.1973,7.77735 c -4.5081,4.27727 -13.9482,12.95234 -20.9785,19.27734 -7.0303,6.325 -16.9088,15.325 -21.9531,20 -5.0444,4.675 -15.4226,14.125 -23.0625,21 -7.6399,6.875 -18.0181,16.325 -23.0625,21 -5.0443,4.675 -14.9161,13.675 -21.9375,20 -7.0214,6.325 -16.9214,15.325 -22,20 -5.0786,4.675 -14.9786,13.675 -22,20 -7.0214,6.325 -16.8932,15.325 -21.9375,20 -5.0444,4.675 -15.4193,14.125 -23.0547,21 -7.6354,6.875 -17.5893,15.9875 -22.12106,20.25 -7.621,7.1681 -11.3867,9.36756 -11.3867,6.65039 0,-0.60504 -1.8,-4.88892 -3.99999,-9.51953 -2.2,-4.63061 -4.0086,-8.74854 -4.0176,-9.15039 -0.01,-0.40186 -1.8009,-4.33047 -3.9824,-8.73047 -2.1816,-4.4 -3.9735,-8.32861 -3.9825,-8.73047 -0.01,-0.40185 -1.8485,-4.67685 -4.0859,-9.5 -2.2374,-4.82314 -4.4525,-9.66953 -4.9219,-10.76953 -0.4693,-1.1 -2.6883,-5.87607 -4.9316,-10.61328 -2.2433,-4.73722 -4.0781,-8.96115 -4.0781,-9.38672 0,-0.42557 -1.8349,-4.6495 -4.0782,-9.38672 -2.2432,-4.73721 -4.4623,-9.51328 -4.9316,-10.61328 -0.4693,-1.1 -2.6845,-5.94639 -4.9219,-10.76953 -2.2374,-4.82315 -4.0769,-9.09815 -4.0859,-9.5 -0.01,-0.40186 -1.8009,-4.33047 -3.9824,-8.73047 -2.1816,-4.4 -3.9735,-8.32861 -3.9825,-8.73047 -0.01,-0.40185 -1.8485,-4.67685 -4.0859,-9.5 -2.2374,-4.82314 -4.4564,-9.66953 -4.9316,-10.76953 -0.4752,-1.1 -2.6943,-5.94639 -4.9317,-10.76953 -2.2374,-4.82315 -4.0769,-9.09815 -4.0859,-9.5 -0.01,-0.40186 -1.8009,-4.33047 -3.9824,-8.73047 -2.1816,-4.4 -3.9735,-8.32861 -3.9825,-8.73047 -0.01,-0.40185 -1.8485,-4.67685 -4.0859,-9.5 -2.2374,-4.82314 -4.4525,-9.66953 -4.9219,-10.76953 -0.4693,-1.1 -2.6883,-5.87607 -4.9316,-10.61328 -2.2433,-4.73722 -4.0781,-8.96115 -4.0781,-9.38672 0,-0.42557 -1.8349,-4.6495 -4.0782,-9.38672 -2.2432,-4.73721 -4.4623,-9.51328 -4.9316,-10.61328 -0.4693,-1.1 -2.6845,-5.94639 -4.9219,-10.76953 -2.2374,-4.82315 -4.0769,-9.09815 -4.0859,-9.5 -0.01,-0.40186 -1.8009,-4.33047 -3.9824,-8.73047 -2.1816,-4.4 -3.9735,-8.32861 -3.9825,-8.73047 -0.01,-0.40185 -1.8485,-4.67685 -4.0859,-9.5 -2.2374,-4.82314 -4.4564,-9.66953 -4.9316,-10.76953 -0.4752,-1.1 -2.6943,-5.94639 -4.9317,-10.76953 -2.2374,-4.82315 -4.0769,-9.09815 -4.0859,-9.5 -0.01,-0.40186 -1.8009,-4.33047 -3.9824,-8.73047 -2.1816,-4.4 -3.9735,-8.32861 -3.9825,-8.73047 -0.01,-0.40185 -1.8485,-4.67685 -4.0859,-9.5 -2.2374,-4.82314 -4.4564,-9.66953 -4.9316,-10.76953 -0.4752,-1.1 -2.6943,-5.94639 -4.9317,-10.769531 -2.2374,-4.82315 -4.0703,-9.09814 -4.0723,-9.5 0,-0.40185 -1.558,-3.81771 -3.4589,-7.5918 -1.901,-3.77408 -3.9425,-8.33685 -4.5371,-10.13867 -0.5947,-1.80182 -2.6362,-6.36458 -4.5372,-10.13867 -1.9009,-3.77409 -3.4569,-7.21854 -3.4589,-7.65625 -0.01,-1.44841 -9.3784,-20.128901 -12.2168,-24.349609 -1.5332,-2.279763 -2.7871,-4.57321 -2.7871,-5.095703 0,-0.522493 -0.9,-1.76428 -2,-2.759766 -1.1,-0.995486 -2,-2.200095 -2,-2.675781 0,-0.475687 -1.1676,-2.713351 -2.5938,-4.972657 z M 429.34575,41.516019 c -0.57,0.0417 -1.0107,0.41321 -1.6309,1.13477 -2.0341,2.36663 -9.7148,13.9326 -9.7148,14.6289 0,0.32139 -3.6,5.95781 -8,12.52539 -4.4,6.56758 -8,12.19436 -8,12.50391 0,0.30954 -3.15,5.25776 -7,10.99609 -3.85,5.73833 -7,10.686541 -7,10.996091 0,0.30954 -3.6,5.93633 -8,12.50391 -4.4,6.56758 -8,12.19437 -8,12.50391 0,0.30955 -3.15,5.25776 -7,10.99609 -3.85,5.73833 -7,10.69143 -7,11.00586 0,0.31444 -2.7,4.58634 -6,9.49414 -3.3,4.9078 -6,9.18492 -6,9.50586 0,0.32094 -2.25,3.91882 -5,7.99414 -2.75,4.07532 -5,7.67532 -5,8 0,0.32468 -2.154,3.83226 -4.7872,7.79492 -2.6331,3.96266 -6.2008,10.13008 -7.9277,13.70508 -2.9992,6.20906 -3.4982,8.00943 -4.9258,17.77344 -0.3436,2.35013 -1.0151,4.51375 -1.4922,4.80859 -0.477,0.29483 -0.8671,2.05789 -0.8671,3.91797 0,1.86008 -0.45,3.66008 -1,4 -0.55,0.33992 -1,2.13992 -1,4 0,1.86008 -0.45,3.66008 -1,4 -0.55,0.33992 -1,2.13992 -1,4 0,1.86008 -0.45,3.66008 -1,4 -0.55,0.33992 -1.0133,1.82855 -1.0293,3.30859 -0.016,1.48004 -0.9028,5.84141 -1.9707,9.69141 -1.068,3.85 -1.9547,8.21137 -1.9707,9.69141 -0.016,1.48004 -0.4793,2.96867 -1.0293,3.30859 -0.55,0.33992 -1,2.13992 -1,4 0,1.86008 -0.45,3.66008 -1,4 -0.55,0.33992 -1,2.13992 -1,4 0,1.86008 -0.45,3.66008 -1,4 -0.55,0.33992 -1,2.13992 -1,4 0,1.86008 -0.45,3.66008 -1,4 -0.55,0.33992 -1.0133,1.82855 -1.0293,3.30859 -0.016,1.48004 -0.9028,5.84141 -1.9707,9.69141 -1.068,3.85 -1.9547,8.21137 -1.9707,9.69141 -0.016,1.48004 -0.4793,2.96867 -1.0293,3.30859 -0.55,0.33992 -1,2.13992 -1,4 0,1.86008 -0.45,3.66008 -1,4 -0.55,0.33992 -1,2.13992 -1,4 0,1.86008 -0.45,3.66008 -1,4 -0.55,0.33992 -1,2.13992 -1,4 0,1.86008 -0.45,3.66008 -1,4 -0.55,0.33992 -1.0133,1.82855 -1.0293,3.30859 -0.016,1.48004 -0.9028,5.84141 -1.9707,9.69141 -1.068,3.85 -1.9547,8.21137 -1.9707,9.69141 -0.016,1.48004 -0.4793,2.96867 -1.0293,3.30859 -0.55,0.33992 -1,2.13992 -1,4 0,1.86008 -0.45,3.66008 -1,4 -0.55,0.33992 -1,2.13992 -1,4 0,1.86008 -0.45,3.66008 -1,4 -0.55,0.33992 -1,2.13992 -1,4 0,1.86008 -0.4027,3.63153 -0.8946,3.93555 -0.4919,0.30401 -1.1329,2.24264 -1.4238,4.30859 -1.5563,11.05206 -2.0231,13.3488 -2.8145,13.83789 -0.477,0.29483 -0.8671,2.05789 -0.8671,3.91797 0,1.86008 -0.45,3.66008 -1,4 -0.55,0.33992 -1,2.13992 -1,4 0,1.86008 -0.45,3.66008 -1,4 -0.55,0.33992 -1,2.13992 -1,4 0,1.86008 -0.45,3.66008 -1,4 -0.55,0.33992 -1.0133,1.82855 -1.0293,3.30859 -0.016,1.48004 -0.9028,5.84141 -1.9707,9.69141 -1.068,3.85 -1.9547,8.21137 -1.9707,9.69141 -0.016,1.48004 -0.4793,2.96867 -1.0293,3.30859 -0.55,0.33992 -1,2.13992 -1,4 0,1.86008 -0.45,3.66008 -1,4 -0.55,0.33992 -1,2.13992 -1,4 0,1.86008 -0.45,3.66008 -1,4 -0.55,0.33992 -1.0133,1.82855 -1.0293,3.30859 -0.016,1.48004 -0.9028,5.84141 -1.9707,9.69141 -1.068,3.85 -1.9547,8.21137 -1.9707,9.69141 -0.016,1.48004 -0.4793,2.96867 -1.0293,3.30859 -0.55,0.33992 -1,2.13992 -1,4 0,1.86008 -0.45,3.66008 -1,4 -0.55,0.33992 -1,2.13992 -1,4 0,1.86008 -0.45,3.66008 -1,4 -0.55,0.33992 -1,2.13992 -1,4 0,1.86008 -0.45,3.66008 -1,4 -0.55,0.33992 -1.0133,1.82855 -1.0293,3.30859 -0.016,1.48004 -0.9028,5.84141 -1.9707,9.69141 -1.068,3.85 -1.9547,8.21137 -1.9707,9.69141 -0.016,1.48004 -0.4793,2.96867 -1.0293,3.30859 -0.55,0.33992 -1,2.13992 -1,4 0,1.86008 -0.45,3.66008 -1,4 -0.55,0.33992 -1,2.13992 -1,4 0,1.86008 -0.45,3.66008 -1,4 -0.55,0.33992 -1,2.13992 -1,4 0,1.86008 -0.45,3.66008 -1,4 -0.55,0.33992 -1.0133,1.82855 -1.0293,3.30859 -0.016,1.48004 -0.9028,5.84141 -1.9707,9.69141 -1.068,3.85 -1.9547,8.21137 -1.9707,9.69141 -0.016,1.48004 -0.4793,2.96867 -1.0293,3.30859 -0.55,0.33992 -1,2.13992 -1,4 0,1.86008 -0.45,3.66008 -1,4 -0.55,0.33992 -1,2.13992 -1,4 0,1.86008 -0.45,3.66008 -1,4 -0.55,0.33992 -1,2.13992 -1,4 0,1.86008 -0.45,3.66008 -1,4 -0.55,0.33992 -1.0133,1.82855 -1.0293,3.30859 -0.016,1.48004 -0.9028,5.84141 -1.9707,9.69141 -1.068,3.85 -1.9547,8.21137 -1.9707,9.69141 -0.016,1.48004 -0.4793,2.96867 -1.0293,3.30859 -0.55,0.33992 -1,2.13992 -1,4 0,1.86008 -0.45,3.66008 -1,4 -0.55,0.33992 -1,2.13992 -1,4 0,1.86008 -0.45,3.66008 -1,4 -0.55,0.33992 -1,2.13992 -1,4 0,1.86008 -0.45,3.66008 -1,4 -0.55,0.33992 -1,2.13992 -1,4 0,1.86008 -0.4027,3.63153 -0.8946,3.93555 -0.4919,0.30401 -1.1329,2.24264 -1.4238,4.30859 -1.5563,11.05206 -2.0231,13.3488 -2.8145,13.83789 -0.477,0.29483 -0.8671,2.05789 -0.8671,3.91797 0,1.86008 -0.45,3.66008 -1,4 -0.55,0.33992 -1,2.13992 -1,4 0,1.86008 -0.45,3.66008 -1,4 -0.55,0.33992 -1,2.13992 -1,4 0,1.86008 -0.45,3.66008 -1,4 -0.55,0.33992 -1.0133,1.82855 -1.0293,3.30859 -0.016,1.48004 -0.9028,5.84141 -1.9707,9.69141 -1.068,3.85 -1.9547,8.21137 -1.9707,9.69141 -0.016,1.48004 -0.4793,2.96867 -1.0293,3.30859 -0.55,0.33992 -1,2.13992 -1,4 0,1.86008 -0.45,3.66008 -1,4 -0.55,0.33992 -1,2.13992 -1,4 0,1.86008 -0.45,3.66008 -1,4 -0.55,0.33992 -1,2.13992 -1,4 0,1.86008 -0.4027,3.63153 -0.8946,3.93555 -0.4919,0.30401 -1.1329,2.24264 -1.4238,4.30859 -1.5563,11.05206 -2.0231,13.3488 -2.8145,13.83789 -0.477,0.29483 -0.8671,2.05789 -0.8671,3.91797 0,1.86008 -0.45,3.66008 -1,4 -0.55,0.33992 -1,2.13992 -1,4 0,1.86008 -0.45,3.66008 -1,4 -0.55,0.33992 -1,2.13992 -1,4 0,1.86008 -0.45,3.66008 -1,4 -0.55,0.33992 -1.0133,1.82855 -1.0293,3.30859 -0.016,1.48004 -0.9028,5.84141 -1.9707,9.69141 -1.068,3.85 -1.9547,8.21137 -1.9707,9.69141 -0.016,1.48004 -0.4793,2.96867 -1.0293,3.30859 -0.55,0.33992 -1,2.13992 -1,4 0,1.86008 -0.45,3.66008 -1,4 -0.55,0.33992 -1,2.13992 -1,4 0,1.86008 -0.45,3.66008 -1,4 -0.55,0.33992 -1,2.13992 -1,4 0,1.86008 -0.4027,3.63153 -0.8946,3.93555 -0.4919,0.30401 -1.1329,2.24264 -1.4238,4.30859 -1.5563,11.05206 -2.0231,13.3488 -2.8145,13.83789 -0.477,0.29483 -0.8671,2.05789 -0.8671,3.91797 0,1.86008 -0.45,3.66008 -1,4 -0.55,0.33992 -1,2.13992 -1,4 0,1.86008 -0.45,3.66008 -1,4 -0.55,0.33992 -1,2.13992 -1,4 0,1.86008 -0.45,3.66008 -1,4 -0.55,0.33992 -1,2.13992 -1,4 0,1.86008 -0.45,3.66008 -1,4 -0.55,0.33992 -1.0133,1.82855 -1.0293,3.30859 -0.016,1.48008 -0.9028,5.84138 -1.9707,9.69138 -1.068,3.85 -1.9547,8.2114 -1.9707,9.6914 -0.016,1.4801 -0.4793,2.9687 -1.0293,3.3086 -0.55,0.34 -1,2.14 -1,4 0,1.8601 -0.45,3.6601 -1,4 -0.55,0.34 -1,2.14 -1,4 0,1.8601 -0.45,3.6601 -1,4 -0.55,0.34 -1,2.14 -1,4 0,1.8601 -0.45,3.6601 -1,4 -0.55,0.34 -1,2.14 -1,4 0,1.8601 -0.45,3.6601 -1,4 -0.55,0.34 -1.0133,1.8286 -1.0293,3.3086 -0.016,1.4801 -0.9028,5.8414 -1.9707,9.69135 -1.068,3.85 -1.9547,8.2113 -1.9707,9.6914 -0.016,1.48 -0.4793,2.9687 -1.0293,3.3086 -0.55,0.3399 -1,2.1399 -1,4 0,1.8601 -0.45,3.6601 -1,4 -0.55,0.3399 -1,2.1399 -1,4 0,1.8601 -0.45,3.6601 -1,4 -0.55,0.3399 -1.0133,1.8286 -1.0293,3.3086 -0.016,1.4801 -0.9028,5.8414 -1.9707,9.6914 -1.068,3.85 -1.9547,8.2113 -1.9707,9.6914 -0.016,1.48 -0.4793,2.9687 -1.0293,3.3086 -0.55,0.3399 -1,2.1399 -1,4 0,1.8601 -0.45,3.6601 -1,4 -0.55,0.3399 -1,2.1399 -1,4 0,1.8601 -0.45,3.6601 -1,4 -0.55,0.3399 -1,2.1399 -1,4 0,1.8601 -0.45,3.6601 -1,4 -0.55,0.3399 -1.0133,1.8286 -1.0293,3.3086 -0.016,1.4801 -0.9028,5.8414 -1.9707,9.6914 -1.068,3.85 -1.9547,8.2113 -1.9707,9.6914 -0.016,1.48 -0.4793,2.9687 -1.0293,3.3086 -0.55,0.3399 -1,2.1399 -1,4 0,1.8601 -0.45,3.6601 -1,4 -0.55,0.3399 -1,2.1399 -1,4 0,1.8601 -0.45,3.6601 -1,4 -0.55,0.3399 -1,2.1399 -1,4 0,1.8601 -0.45,3.6601 -1,4 -0.55,0.3399 -1,2.1399 -1,4 0,1.8601 -0.402704,3.6315 -0.894604,3.9355 -0.4919,0.304 -1.1329,2.2427 -1.4238,4.3086 -1.5563,11.0521 -2.0231,13.3488 -2.8145,13.8379 -0.477,0.2948 -0.8671,2.0579 -0.8671,3.918 0,1.8601 -0.45,3.6601 -1,4 -0.55,0.3399 -1,2.1399 -1,4 0,1.8601 -0.45,3.6601 -1,4 -0.55,0.3399 -1,2.1399 -1,4 0,1.8601 -0.45,3.6601 -1,4 -0.55,0.3399 -1,2.1399 -1,4 0,1.8601 -0.3902,3.6232 -0.8672,3.918 -0.7914,0.4891 -1.2582,2.7858 -2.8145,13.8379 -0.2909,2.0659 -0.9319,4.0046 -1.4238,4.3086 -0.4919,0.304 -0.8945,2.0754 -0.8945,3.9355 0,1.8601 -0.44996,3.6601 -0.99996,4 -0.55,0.3399 -1,2.1399 -1,4 0,1.8601 -0.45,3.6601 -1,4 -0.55,0.3399 -1,2.1399 -1,4 0,1.8601 -0.45,3.6601 -1,4 -0.55,0.3399 -1,2.1399 -1,4 0,1.8601 -0.4027,3.6315 -0.8946,3.9355 -0.4919,0.304 -1.1329,2.2427 -1.4238,4.3086 -1.5563,11.0521 -2.0231,13.3488 -2.8145,13.8379 -0.477,0.2948 -0.8671,2.0579 -0.8671,3.918 0,1.8601 -0.45,3.6601 -1,4 -0.55,0.3399 -1,2.1399 -1,4 0,1.8601 -0.45,3.6601 -1,4 -0.55,0.3399 -1,2.1399 -1,4 0,1.8601 -0.45,3.6601 -1,4 -0.55,0.3399 -1,2.1399 -1,4 0,1.8601 -0.3902,3.6232 -0.8672,3.918 -0.7914,0.4891 -1.2582,2.7858 -2.8145,13.8379 -0.2909,2.0659 -0.9319,4.0046 -1.4238,4.3086 -0.4919,0.304 -0.8945,2.0754 -0.8945,3.9355 0,1.8601 -0.45,3.6601 -1,4 -0.55,0.3399 -1,2.1399 -1,4 0,1.8601 -0.45,3.6601 -1,4 -0.55,0.3399 -1,2.1399 -1,4 0,1.8601 -0.45,3.6601 -1,4 -0.55,0.3399 -1,2.1399 -1,4 0,1.8601 -0.4027,3.6315 -0.8946,3.9355 -0.4919,0.304 -1.1329,2.2427 -1.4238,4.3086 -1.5563,11.0521 -2.0231,13.3488 -2.8145,13.8379 -0.477,0.2948 -0.8671,2.0579 -0.8671,3.918 0,1.8601 -0.45,3.6601 -1,4 -0.55,0.3399 -1,2.1399 -1,4 0,1.8601 -0.45,3.6601 -1,4 -0.55,0.3399 -1,2.1399 -1,4 0,1.8601 -0.45,3.6601 -1,4 -0.55,0.3399 -1,2.1399 -1,4 0,1.8601 -0.4027,3.6315 -0.8946,3.9355 -0.4919,0.304 -1.1329,2.2427 -1.4238,4.3086 -1.5563,11.0521 -2.0231,13.3488 -2.8145,13.8379 -0.477,0.2948 -0.8671,2.0579 -0.8671,3.918 0,1.8601 -0.45,3.6601 -1,4 -0.55,0.3399 -1,2.1399 -1,4 0,1.8601 -0.45,3.6601 -1,4 -0.55,0.3399 -1,2.1399 -1,4 0,1.8601 -0.45,3.6601 -1,4 -0.55,0.3399 -1,2.1399 -1,4 0,1.8601 -0.4027,3.6315 -0.8946,3.9355 -0.4919,0.304 -1.1329,2.2427 -1.4238,4.3086 -1.5563,11.0521 -2.0231,13.3488 -2.8145,13.8379 -0.477,0.2948 -0.8671,2.0579 -0.8671,3.918 0,1.8601 -0.4027,3.6315 -0.8946,3.9355 -0.4919,0.304 -1.1329,2.2427 -1.4238,4.3086 -0.2909,2.066 -0.8475,5.9083 -1.2383,8.5391 l -0.7109,4.7832 4.3847,-0.6836 c 2.4111,-0.3756 6.2635,-1.9656 8.5625,-3.5332 2.2991,-1.5676 4.5926,-2.8496 5.0957,-2.8496 0.5032,0 1.7292,-0.9 2.7247,-2 0.9954,-1.1 2.3454,-2 3,-2 0.6545,0 2.0045,-0.9 3,-2 0.9954,-1.1 2.3454,-2 3,-2 0.6545,0 2.0045,-0.9 3,-2 0.9954,-1.1 2.2214,-2 2.7246,-2 0.5031,0 2.8772,-1.35 5.2754,-3 2.3982,-1.65 4.8004,-3 5.3378,-3 1.1832,0 10.1622,-9.8385 10.1622,-11.1348 0,-0.505 4.05,-6.9693 8.99996,-14.3652 4.95,-7.3959 9,-13.7 9,-14.0078 0,-0.3079 3.15,-5.2539 7,-10.9922 3.850004,-5.7383 7.000004,-10.6843 7.000004,-10.9922 0,-0.3078 4.05,-6.6119 9,-14.0078 4.95,-7.3959 9,-13.7 9,-14.0078 0,-0.3079 3.15,-5.2539 7,-10.9922 3.85,-5.7383 7,-10.6843 7,-10.9922 0,-0.3078 4.05,-6.6119 9,-14.0078 4.95,-7.3959 9,-13.7 9,-14.0078 0,-0.3079 3.15,-5.2539 7,-10.9922 3.85,-5.7383 7,-10.6843 7,-10.9922 0,-0.3078 4.05,-6.6119 9,-14.0078 4.95,-7.3959 9,-13.7 9,-14.0078 0,-0.3079 3.15,-5.2539 7,-10.9922 3.85,-5.7383 7,-10.6843 7,-10.9922 0,-0.3078 4.05,-6.6119 9,-14.0078 4.95,-7.3959 9,-13.7 9,-14.0078 0,-0.3079 3.15,-5.2539 7,-10.9922 3.85,-5.7383 7,-10.6843 7,-10.9922 0,-0.3078 4.05,-6.6119 9,-14.0078 4.95,-7.3959 9,-13.7 9,-14.0078 0,-0.3079 3.15,-5.2539 7,-10.9922 3.85,-5.7383 7,-10.6843 7,-10.9922 0,-0.3078 4.05,-6.6119 9,-14.0078 4.95,-7.3959 9,-13.7 9,-14.0078 0,-0.3079 3.15,-5.2539 7,-10.9922 3.85,-5.7383 7,-10.6843 7,-10.9922 0,-0.3078 4.05,-6.6119 9,-14.0078 4.95,-7.3959 9,-13.7 9,-14.0078 0,-0.3079 3.15,-5.2539 7,-10.9922 3.85,-5.7383 7,-10.6866 7,-10.9961 0,-0.3096 3.6,-5.9363 8,-12.5039 4.4,-6.5676 8,-12.1926 8,-12.5 0,-0.3074 3.6,-5.9324 8,-12.5 4.4,-6.5676 8.0092,-12.29195 8.0214,-12.72065 0.012,-0.4287 0.903,-1.9043 1.9786,-3.2793 1.0755,-1.375 1.9663,-3.5125 1.9785,-4.75 l 0.022,-2.25 h -21.5684 -21.5664 l 0.709,-2.2343 c 0.3899,-1.2285 5.5942,-9.5421 11.5664,-18.4766 5.9721,-8.9345 10.8594,-16.4827 10.8594,-16.7734 0,-0.2908 16.65,-25.4981 37,-56.01567 20.35,-30.51757 37,-55.71767 37,-56 0,-0.28232 17.1,-26.15723 38,-57.5 20.9,-31.34277 38,-57.22127 38,-57.50781 0,-0.28655 7.65,-11.98305 17,-25.99219 17.3919,-26.05846 19.2927,-30.03834 14.75,-30.87891 -10.2175,-1.8906 -18.7995,-2.62109 -30.7696,-2.62109 -7.6898,0 -13.9804,-0.24998 -13.9804,-0.55664 0,-0.89861 4.9564,-9.5206 8.1015,-14.0918 1.5941,-2.3169 2.8985,-4.49236 2.8985,-4.83594 0,-0.34358 1.8,-3.27598 4,-6.51562 2.2,-3.23964 4,-6.16464 4,-6.5 0,-0.33536 1.8,-3.26036 4,-6.5 2.2,-3.23964 4,-6.16464 4,-6.5 0,-0.33536 1.8,-3.26036 4,-6.5 2.2,-3.23964 4,-6.16464 4,-6.5 0,-0.33536 1.8,-3.26036 4,-6.5 2.2,-3.23964 4,-6.16464 4,-6.5 0,-0.33536 1.8,-3.26036 4,-6.5 2.2,-3.23964 4,-6.16464 4,-6.5 0,-0.33536 1.8,-3.26036 4,-6.5 2.2,-3.23964 4,-6.16464 4,-6.5 0,-0.33536 1.8,-3.26036 4,-6.5 2.2,-3.23964 4,-6.16464 4,-6.5 0,-0.33536 1.8,-3.26036 4,-6.5 2.2,-3.23964 4,-6.16464 4,-6.5 0,-0.33536 1.8,-3.26036 4,-6.5 2.2,-3.23964 4,-6.16464 4,-6.5 0,-0.33536 1.8,-3.26036 4,-6.5 2.2,-3.23964 4,-6.16464 4,-6.5 0,-0.33536 1.8,-3.26036 4,-6.5 2.2,-3.23964 4,-6.16464 4,-6.5 0,-0.33536 1.8,-3.26036 4,-6.5 2.2,-3.23964 4,-6.16464 4,-6.5 0,-0.33536 1.8,-3.26036 4,-6.5 2.2,-3.23964 4,-6.16464 4,-6.5 0,-0.33536 1.8,-3.26036 4,-6.5 2.2,-3.23964 4,-6.16464 4,-6.5 0,-0.33536 1.8,-3.26036 4,-6.5 2.2,-3.23964 4,-6.16464 4,-6.5 0,-0.33536 1.8,-3.26036 4,-6.5 2.2,-3.23964 4,-6.17203 4,-6.51562 0,-0.34359 1.35,-2.58619 3,-4.98438 1.65,-2.39819 3,-4.64819 3,-5 0,-0.35181 1.35,-2.60181 3,-5 1.65,-2.39819 3,-4.6408 3,-4.98438 0,-0.34358 1.8,-3.27598 4,-6.51562 2.2,-3.23964 4,-6.16464 4,-6.5 0,-0.33536 1.8,-3.26036 4,-6.5 2.2,-3.23964 4,-6.16464 4,-6.5 0,-0.33536 1.7226,-3.17237 3.8281,-6.30469 5.4126,-8.05259 5.5735,-8.83278 2.8027,-13.57617 -1.3236,-2.26581 -3.6404,-6.36914 -5.1484,-9.11914 -1.508,-2.75 -3.3576,-5.70981 -4.1114,-6.57812 -0.7537,-0.86832 -1.371,-2.03676 -1.371,-2.59571 0,-0.55895 -0.9,-1.83068 -2,-2.82617 -1.1,-0.99549 -2,-2.34549 -2,-3 0,-0.65451 -0.9,-2.00451 -2,-3 -1.1,-0.99549 -2,-2.34549 -2,-3 0,-0.65451 -0.9,-2.00451 -2,-3 -1.1,-0.99549 -2,-2.34549 -2,-3 0,-0.65451 -0.9,-2.00451 -2,-3 -1.1,-0.99549 -2,-2.34549 -2,-3 0,-0.65451 -0.9,-2.00451 -2,-3 -1.1,-0.99549 -2,-2.20962 -2,-2.69922 0,-0.48959 -2.25,-4.22546 -5,-8.30078 -2.75,-4.07532 -5,-7.81119 -5,-8.30078 0,-0.4896 -0.9,-1.70373 -2,-2.69922 -1.1,-0.99549 -2,-2.34549 -2,-3 0,-0.65451 -0.9,-2.00451 -2,-3 -1.1,-0.99549 -2,-2.34549 -2,-3 0,-0.65451 -0.9,-2.00451 -2,-3 -1.1,-0.99549 -2,-2.34549 -2,-3 0,-0.65451 -0.9,-2.00451 -2,-3 -1.1,-0.99549 -2,-2.15765 -2,-2.58203 0,-0.42439 -2.25,-4.16962 -5,-8.32227 -2.75,-4.15265 -5,-7.94049 -5,-8.41797 0,-0.47748 -0.9,-1.68224 -2,-2.67773 -1.1,-0.99549 -2,-2.34549 -2,-3 0,-0.65451 -0.9,-2.00451 -2,-3 -1.1,-0.99549 -2,-2.34549 -2,-3 0,-0.65451 -0.9,-2.00451 -2,-3 -1.1,-0.99549 -2,-2.34549 -2,-3 0,-0.65451 -0.9,-2.00451 -2,-3 -1.1,-0.99549 -2,-2.34549 -2,-3 0,-0.65451 -0.9,-2.00451 -2,-3 -1.1,-0.99549 -2,-2.20962 -2,-2.69922 0,-0.48959 -2.25,-4.22546 -5,-8.30078 -2.75,-4.07532 -5,-7.81119 -5,-8.30078 0,-0.4896 -0.9,-1.70373 -2,-2.69922 -1.1,-0.99549 -2,-2.34549 -2,-3 0,-0.65451 -0.9,-2.00451 -2,-3 -1.1,-0.99549 -2,-2.34549 -2,-3 0,-0.65451 -0.9,-2.00451 -2,-3 -1.1,-0.99549 -2,-2.34549 -2,-3 0,-0.65451 -0.9,-2.00451 -2,-3 -1.1,-0.99549 -2,-2.34549 -2,-3 0,-0.65451 -0.9,-2.00451 -2,-3 -1.1,-0.99549 -2,-2.20025 -2,-2.67773 0,-0.47748 -2.25,-4.26532 -5,-8.41797 -2.75,-4.15265 -5,-7.89788 -5,-8.32227 0,-0.42438 -0.9,-1.58654 -2,-2.58203 -1.1,-0.99549 -2,-2.34549 -2,-3 0,-0.65451 -0.9,-2.00451 -2,-3 -1.1,-0.99549 -2,-2.34549 -2,-3 0,-0.65451 -0.9,-2.00451 -2,-3 -1.1,-0.99549 -2,-2.34549 -2,-3 0,-0.65451 -0.9,-2.00451 -2,-3 -1.1,-0.99549 -2,-2.20025 -2,-2.67773 0,-0.47748 -2.25,-4.26532 -5,-8.41797 -2.75,-4.15265 -5,-7.89788 -5,-8.32227 0,-0.42438 -0.9,-1.58654 -2,-2.58203 -1.1,-0.99549 -2,-2.34549 -2,-3 0,-0.65451 -0.9,-2.00451 -2,-3 -1.1,-0.99549 -2,-2.34549 -2,-3 0,-0.65451 -0.9,-2.00451 -2,-3 -1.1,-0.99549 -2,-2.34549 -2,-3 0,-0.65451 -0.9,-2.00451 -2,-3 -1.1,-0.99549 -2,-2.15988 -2,-2.58789 0,-0.42801 -3.15,-5.53164 -7,-11.341801 -3.85,-5.81016 -7,-10.94576 -7,-11.4121 0,-0.46635 -0.9,-1.66272 -2,-2.65821 -1.1,-0.99548 -2,-2.34548 -2,-3 0,-0.65451 -0.9,-2.00451 -2,-3 -1.1,-0.99548 -2,-2.34351 -2,-2.99609 0,-2.07701 -28.8498,-28.15743 -34.2422,-30.95508 -1.1423,-0.59259 -1.8422,-0.87959 -2.4121,-0.83789 z" />
  </g>
</svg>
